<?xml version="1.0" encoding="utf-8"?>
<!-- Uploaded to: SVG Repo, www.svgrepo.com, Generator: SVG Repo Mixer Tools -->
<svg width="800px" height="800px" viewBox="0 0 1024 1024" class="icon"  version="1.1" xmlns="http://www.w3.org/2000/svg"><path d="M320 213.333333m-128 0a128 128 0 1 0 256 0 128 128 0 1 0-256 0Z" fill="#FFECB3" /><path d="M480 181.333333m-117.333333 0a117.333333 117.333333 0 1 0 234.666666 0 117.333333 117.333333 0 1 0-234.666666 0Z" fill="#FFECB3" /><path d="M629.333333 202.666667m-74.666666 0a74.666667 74.666667 0 1 0 149.333333 0 74.666667 74.666667 0 1 0-149.333333 0Z" fill="#FFECB3" /><path d="M565.333333 288m-74.666666 0a74.666667 74.666667 0 1 0 149.333333 0 74.666667 74.666667 0 1 0-149.333333 0Z" fill="#FFECB3" /><path d="M181.333333 224m-53.333333 0a53.333333 53.333333 0 1 0 106.666667 0 53.333333 53.333333 0 1 0-106.666667 0Z" fill="#FFECB3" /><path d="M693.333333 224m-53.333333 0a53.333333 53.333333 0 1 0 106.666667 0 53.333333 53.333333 0 1 0-106.666667 0Z" fill="#FFECB3" /><path d="M693.546667 832a117.482667 117.482667 0 0 1-117.333334-117.333333v-234.666667c0-6.165333-0.085333-11.050667-0.149333-14.869333-0.213333-13.504-0.405333-25.152 9.941333-35.669334l9.386667-9.536 14.122667-0.298666c8.832 0 15.125333 3.413333 18.517333 5.248l0.426667 0.234666C658.389333 407.338667 739.712 362.666667 800.213333 362.666667c96 0 96 73.429333 96 117.312-1.173333 21.376-11.157333 194.368-22.165333 241.877333-15.936 68.949333-59.498667 110.122667-116.501333 110.122667l-64 0.021333z m-53.333334-341.333333v224c0 29.397333 23.914667 53.333333 53.333334 53.333333l63.978666-0.021333c34.965333 0 48.938667-37.930667 54.186667-60.544 8.256-35.733333 17.621333-177.6 20.544-229.269334C832.213333 426.666667 829.781333 426.666667 800.213333 426.666667c-44.693333 0-123.989333 43.733333-148.245333 59.072l-7.850667 4.928h-3.904zM170.666667 853.333333v42.666667a42.666667 42.666667 0 0 0 42.666666 42.666667h448a42.666667 42.666667 0 0 0 42.666667-42.666667v-42.666667H170.666667z" fill="#BBDEFB" /><path d="M170.666667 256h533.333333v597.333333H170.666667z" fill="#FFB300" /><path d="M170.666667 256h533.333333v170.666667H170.666667z" fill="#FFD54F" /><path d="M522.666667 586.666667m-32 0a32 32 0 1 0 64 0 32 32 0 1 0-64 0Z" fill="#FFECB3" /><path d="M565.333333 714.666667m-32 0a32 32 0 1 0 64 0 32 32 0 1 0-64 0Z" fill="#FFE082" /><path d="M618.666667 533.333333m-21.333334 0a21.333333 21.333333 0 1 0 42.666667 0 21.333333 21.333333 0 1 0-42.666667 0Z" fill="#FFF8E1" /><path d="M307.114667 416.896c11.861333-61.76 11.861333-128.96-44.010667-160.896C298.666667 213.333333 405.333333 213.333333 441.344 256c-62.037333 35.456-55.253333 114.389333-39.744 181.056 12.458667 34.752 20.266667 66.048 23.338667 85.952l0.106666 0.725333c0.874667 5.781333 1.450667 10.944 1.450667 14.442667a74.24 74.24 0 0 1-148.48 0c0-3.2 0.469333-7.701333 1.194667-12.778667 2.986667-24.064 13.546667-60.288 27.904-108.501333z" fill="#FFFDF0" /><path d="M467.178667 256a106.666667 106.666667 0 0 0-209.024 0h209.024z" fill="#FFFDF0" /><path d="M553.578667 256a53.333333 53.333333 0 1 0-104.512 0h104.512z" fill="#FFFDF0" /></svg>