<?xml version="1.0" encoding="iso-8859-1"?>
<!-- Uploaded to: SVG Repo, www.svgrepo.com, Generator: SVG Repo Mixer Tools -->
<svg height="800px" width="800px" version="1.1" id="Layer_1" xmlns="http://www.w3.org/2000/svg" xmlns:xlink="http://www.w3.org/1999/xlink" 
	 viewBox="0 0 512 512" xml:space="preserve">
<circle style="fill:#273B7A;" cx="256" cy="256" r="256"/>
<path style="fill:#121149;" d="M266.44,511.771c110.933-4.451,203.685-79.481,234.579-181.419l-217.29-213.964l-35.037,29.446
	l-33.347-15.246l-42.129,10.881l36.311,36.311l-14.008,15.729l100.659,100.659l-151.043,96.297L266.44,511.771z"/>
<path style="fill:#FFEDB5;" d="M279.2,113.778H175.909c-2.894,0-5.242,2.348-5.242,5.244v17.958c0,2.896,2.348,5.244,5.244,5.244
	h23.2v32.323H256v-32.325h23.2c2.896,0,5.244-2.348,5.244-5.244v-17.956C284.444,116.126,282.096,113.778,279.2,113.778z"/>
<g>
	<path style="fill:#FEE187;" d="M279.2,113.778h-51.359v60.768H256v-32.323h23.2c2.896,0,5.244-2.348,5.244-5.244v-17.956
		C284.444,116.126,282.096,113.778,279.2,113.778z"/>
	<path style="fill:#FEE187;" d="M295.505,398.222H159.604c-9.6,0-17.384-7.783-17.384-17.382v-192.79
		c0.002-9.6,7.783-17.384,17.384-17.384h135.901c9.6,0,17.382,7.783,17.382,17.384v192.79
		C312.889,390.439,305.105,398.222,295.505,398.222z"/>
</g>
<path style="fill:#FFC61B;" d="M295.505,170.667h-67.663v227.556h67.663c9.6,0,17.382-7.783,17.382-17.382V188.049
	C312.889,178.45,305.105,170.667,295.505,170.667z"/>
<path style="fill:#EAA22F;" d="M230.141,276.687c-26.146-4.022-52.291-6.859-78.438-8.194v106.151c0,8.737,7.084,15.82,15.82,15.82
	h120.063c8.737,0,15.82-7.083,15.82-15.82V269.06C282.279,282.843,255.631,280.935,230.141,276.687z"/>
<path style="fill:#E09112;" d="M230.141,276.687c-0.765-0.117-1.533-0.224-2.298-0.341v114.119h59.744
	c8.737,0,15.82-7.083,15.82-15.82V269.06C282.279,282.843,255.631,280.935,230.141,276.687z"/>
<path style="fill:#38C6D9;" d="M367.433,398.222h-79.91c-11.938,0-21.849-9.218-22.716-21.123L256,256h142.222l-8.064,120.961
	C389.36,388.925,379.423,398.222,367.433,398.222z"/>
<path style="fill:#02B2B2;" d="M327.83,256v142.222h39.603c11.99,0,21.926-9.297,22.725-21.261L398.222,256H327.83z"/>
</svg>