<?xml version="1.0" encoding="iso-8859-1"?>
<!-- Uploaded to: SVG Repo, www.svgrepo.com, Generator: SVG Repo Mixer Tools -->
<svg version="1.1" id="Layer_1" xmlns="http://www.w3.org/2000/svg" xmlns:xlink="http://www.w3.org/1999/xlink" 
	 viewBox="0 0 504 504" xml:space="preserve">
<circle style="fill:#90DFAA;" cx="252" cy="252" r="252"/>
<path style="fill:#2C9984;" d="M49.9,402.5C95.8,464.1,169.3,504,252,504s156.2-39.9,202.1-101.5H49.9z"/>
<path style="fill:#E6E9EE;" d="M311.6,395.2c6.3-2.8,10.3-9,10.3-15.8v-59.6c0-5.2-2.6-9.8-6.6-13.1c-2.5-2.1-4-4.9-4-7.9
	c0-5.3,4.5-9.7,10.6-11.1v-4h7.8v4c6.1,1.4,10.6,5.8,10.6,11.1c0,3.1-1.5,5.9-4,7.9c-4,3.3-6.6,8-6.6,13.1v59.6
	c0,6.9,4.1,13.1,10.3,15.8l16.4,7.2h-26.7h-7.8h-26.7L311.6,395.2z"/>
<path style="fill:#FFFFFF;" d="M375.1,173.3c7,17.2,11.1,37.1,11.1,56c0,48.6-27,72.5-60.4,72.5s-60.4-23.9-60.4-72.5
	c0-18.9,4.1-38.8,11.1-56L375.1,173.3L375.1,173.3z"/>
<path style="fill:#FF7058;" d="M380.2,213.7c0.8,5.9,1.2,11.7,1.2,17.5c0,41.7-21.3,67.6-55.5,67.6s-55.5-25.9-55.5-67.6
	c0-5.7,0.4-11.6,1.2-17.5L380.2,213.7L380.2,213.7z"/>
<path style="fill:#F1543F;" d="M349.4,281.5l0.9-0.9c0.7-0.7,1.6-1.6,2.7-2.9s2.4-2.9,3.8-4.8s2.8-4.1,4.1-6.6
	c2.7-5,5.2-11.1,6.8-17.9c0.8-3.4,1.4-6.9,1.9-10.5c0.4-3.7,0.7-7.2,0.7-11c0.1-4.4-0.1-8.8-0.5-13.1h-5.3c0.8,4.3,1.3,8.7,1.5,13.2
	c0.2,3.5,0.2,7.3,0.1,10.7c-0.2,3.5-0.5,7-1.1,10.3c-1.1,6.7-3,12.8-5.3,17.8c-1.2,2.5-2.4,4.8-3.6,6.8s-2.4,3.6-3.4,4.9
	c-1,1.4-1.9,2.4-2.5,3C349.8,281,349.5,281.3,349.4,281.5z"/>
<path style="fill:#E6E9EE;" d="M359.5,173.3h-9.1c0.4,0.8,1,1.8,1.6,3c1.5,2.8,3.4,7,5.4,12c2.8,7,5.5,15.9,7.1,25.4h5.3
	c-0.9-10.1-3.1-19.6-5.4-27.1c-1.7-5.4-3.4-9.8-4.7-12.9C359.6,173.5,359.6,173.4,359.5,173.3z"/>
<polygon style="fill:#FF7058;" points="162.3,90.9 195.4,90.9 201.7,67.6 156,67.6 "/>
<path style="fill:#324A5E;" d="M160.6,138.1V95.6H197v42.5c0,9.3,4.8,17.8,12.8,22.6c17.3,10.5,28.9,29.5,28.9,51.2v176.2
	c0,7.6-6.2,13.8-13.8,13.8h-92.2c-7.6,0-13.8-6.2-13.8-13.8V211.9c0-21.7,11.6-40.7,28.9-51.2C155.8,155.9,160.6,147.3,160.6,138.1z
	"/>
<path style="fill:#CED5E0;" d="M156.8,99.1h44c0.5,0,0.8-0.4,0.8-0.8v-9.4c0-0.5-0.4-0.8-0.8-0.8h-44c-0.5,0-0.8,0.4-0.8,0.8v9.4
	C156,98.7,156.3,99.1,156.8,99.1z"/>
<rect x="119" y="231.4" style="fill:#FFD05B;" width="97.7" height="109.9"/>
</svg>