<?xml version="1.0" encoding="iso-8859-1"?>
<!-- Uploaded to: SVG Repo, www.svgrepo.com, Generator: SVG Repo Mixer Tools -->
<svg height="800px" width="800px" version="1.1" id="Layer_1" xmlns="http://www.w3.org/2000/svg" xmlns:xlink="http://www.w3.org/1999/xlink" 
	 viewBox="0 0 512 512" xml:space="preserve">
<path style="fill:#D7EBFF;" d="M456.348,100.174c0,7.569-0.445,15.026-1.224,22.372c-1.336,12.021-3.784,23.819-7.235,35.172
	c-11.353,1.002-22.93-0.111-34.06-3.228c-5.12-1.558-10.128-3.562-15.025-6.01c-16.252-8.125-35.619-8.125-51.87,0
	c-1.557,0.779-3.115,1.558-4.674,2.226c-23.152,10.017-50.087,10.574-78.136-2.671c-2.671-1.224-5.343-2.337-8.125-3.005
	c-14.582-4.563-29.94-2.894-42.631,3.45c-12.798,6.456-26.822,9.572-40.846,9.572s-28.049-3.117-40.848-9.572
	c-11.465-5.788-24.599-7.457-36.954-4.897c-5.12,0.89-10.129,2.56-14.916,4.897c-5.343,2.671-10.908,4.786-16.473,6.344
	c-3.117-10.685-5.343-21.704-6.567-32.946c-0.667-7.123-1.113-14.358-1.113-21.704c0-32.056,7.345-62.664,21.816-91.047
	C80.362,3.562,86.15,0,92.383,0h327.235c6.233,0,12.021,3.562,14.915,9.127C449.003,37.51,456.348,68.118,456.348,100.174z"/>
<path style="fill:#BDDEFF;" d="M456.348,100.174c0,7.569-0.445,15.026-1.224,22.372c-1.336,12.021-3.784,23.819-7.235,35.172
	c-11.353,1.002-22.93-0.111-34.06-3.228c-5.12-1.558-10.128-3.562-15.025-6.01c-16.252-8.125-35.619-8.125-51.87,0
	c-1.557,0.779-3.115,1.558-4.674,2.226c-23.152,10.017-50.087,10.574-78.136-2.671c-2.671-1.224-5.343-2.337-8.125-3.005V0h163.617
	c6.234,0,12.022,3.562,14.916,9.127C449.003,37.51,456.348,68.118,456.348,100.174z"/>
<path style="fill:#D7EBFF;" d="M256.001,512c-9.223,0-16.696-7.473-16.696-16.696V283.826c0-9.223,7.473-16.696,16.696-16.696
	c9.223,0,16.696,7.473,16.696,16.696v211.478C272.696,504.527,265.223,512,256.001,512z"/>
<path style="fill:#BDDEFF;" d="M272.696,495.304V283.826c0-9.223-7.473-16.696-16.696-16.696V512
	C265.223,512,272.696,504.527,272.696,495.304z"/>
<path style="fill:#F26D76;" d="M455.124,122.546c-1.336,12.021-3.784,23.819-7.235,35.172
	c-24.71,82.588-101.398,142.803-191.889,142.803c-91.603,0-168.959-61.663-192.669-145.697c-3.117-10.685-5.343-21.704-6.567-32.946
	c11.13-3.562,15.583-8.459,32.613-11.353c19.256-3.45,39.402-0.779,57.209,8.125c27.159,13.579,47.75,1.447,58.88-3.005
	c16.696-6.678,34.172-8.125,50.532-5.12c4.674,0.89,9.239,2.115,13.69,3.673c11.13,3.896,33.614,18.81,62.332,4.452
	c25.599-12.8,56.096-12.8,81.695,0c2.561,1.224,5.121,2.337,7.792,3.117C432.418,125.44,444.105,125.663,455.124,122.546z"/>
<path style="fill:#E65C64;" d="M455.124,122.546c-1.336,12.021-3.784,23.819-7.235,35.172
	c-24.71,82.588-101.398,142.803-191.889,142.803V110.525c4.674,0.89,9.239,2.115,13.69,3.673c11.13,3.896,33.614,18.81,62.332,4.452
	c25.599-12.8,56.096-12.8,81.695,0c2.561,1.224,5.121,2.337,7.792,3.117C432.418,125.44,444.105,125.663,455.124,122.546z"/>
<circle style="fill:#C4E2FF;" cx="306.087" cy="217.043" r="16.696"/>
<g>
	<circle style="fill:#D7EBFF;" cx="239.305" cy="183.652" r="16.696"/>
	<path style="fill:#D7EBFF;" d="M339.479,512H172.522c-9.223,0-16.696-7.473-16.696-16.696s7.473-16.696,16.696-16.696h166.956
		c9.223,0,16.696,7.473,16.696,16.696S348.702,512,339.479,512z"/>
</g>
<path style="fill:#BDDEFF;" d="M339.479,478.609h-83.478V512h83.478c9.223,0,16.696-7.473,16.696-16.696
	S348.702,478.609,339.479,478.609z"/>
</svg>